<?xml version="1.0" encoding="UTF-8"?>
<svg version="1.1" xmlns="http://www.w3.org/2000/svg" width="930" height="202">
<path d="M0 0 C16.644375 -0.061875 33.28875 -0.12375 50.4375 -0.1875 C55.66005615 -0.21481201 60.8826123 -0.24212402 66.26342773 -0.27026367 C72.72473145 -0.28381348 72.72473145 -0.28381348 75.76576233 -0.28633118 C77.85420153 -0.29088686 79.9426337 -0.30132967 82.03102112 -0.31672668 C103.97632971 -0.4701947 126.8736047 0.35096148 144 16 C153.69425334 27.0081265 155.87814152 39.67328377 155 54 C153.41686203 64.85388659 149.07925006 74.30679549 140.484375 81.3359375 C135.30212163 84.80706947 129.63969381 87.36767986 124 90 C122.66409106 90.66149039 121.32936135 91.32544783 120 92 C120.95519531 92.27972656 121.91039062 92.55945313 122.89453125 92.84765625 C136.55070672 97.01082166 149.02512778 103.39661096 156.8203125 115.92578125 C161.5289344 124.87671226 163.38388878 133.24875114 163.3125 143.3125 C163.30512817 144.55471313 163.30512817 144.55471313 163.29760742 145.82202148 C163.05851667 158.40800371 159.72140987 170.11578615 151.1875 179.625 C136.04203562 193.81443839 115.0020567 196.18821875 95.13427734 196.11352539 C93.5564318 196.11370619 93.5564318 196.11370619 91.94671059 196.11389065 C88.5764306 196.11315039 85.20620746 196.10556296 81.8359375 196.09765625 C79.74129259 196.09618408 77.64664731 196.09516506 75.55200195 196.09460449 C67.82632899 196.08938349 60.10066392 196.07542223 52.375 196.0625 C35.09125 196.041875 17.8075 196.02125 0 196 C0 131.32 0 66.64 0 0 Z M58 17 C58 39.44 58 61.88 58 85 C74.85232897 85.84686016 74.85232897 85.84686016 89.3125 79.8125 C97.20789453 71.54987782 98.35023926 61.09957558 98.3125 50.125 C98.32861328 49.19558594 98.34472656 48.26617187 98.36132812 47.30859375 C98.36723042 38.84470385 97.23569614 30.51433839 91.3125 24.0625 C90.68988281 23.35222656 90.06726563 22.64195313 89.42578125 21.91015625 C79.85116322 14.37072273 70.13295128 17 58 17 Z M58 102 C58 127.41 58 152.82 58 179 C78.37124894 179.9443953 78.37124894 179.9443953 95.9453125 171.08984375 C104.39476696 161.0671645 105.57208975 148.87633 104.75 136.12109375 C103.45389259 124.65285763 100.9466964 114.82610008 92 107 C81.04564647 99.93597763 72.12626667 102 58 102 Z " fill="#1C6835" transform="translate(507,3)"/>
<path d="M0 0 C18.81 0 37.62 0 57 0 C57 23.76 57 47.52 57 72 C67.23 72 77.46 72 88 72 C88 67.05 88 62.1 88 57 C89.51171875 52.81640625 89.51171875 52.81640625 91.6875 49.5625 C92.08396729 48.95889648 92.48043457 48.35529297 92.88891602 47.73339844 C100.27539517 36.78650983 109.02590325 26.73438437 118.171875 17.234375 C119.97057309 15.03596623 120.73647572 13.80294007 121 11 C120.505 10.01 120.505 10.01 120 9 C117.0783934 8.74241569 115.49326855 8.67056794 113.01464844 10.32592773 C112.07153809 11.24547241 112.07153809 11.24547241 111.109375 12.18359375 C110.40361328 12.86035156 109.69785156 13.53710938 108.97070312 14.234375 C108.23787109 14.96140625 107.50503906 15.6884375 106.75 16.4375 C105.99654297 17.16582031 105.24308594 17.89414062 104.46679688 18.64453125 C99.73869566 23.22985115 95.055021 27.86636296 90.46875 32.59375 C89 34 89 34 88 34 C88 22.78 88 11.56 88 0 C106.81 0 125.62 0 145 0 C145 24.75 145 49.5 145 75 C141.61273737 73.30636868 140.13335171 72.36331295 137.64453125 69.76953125 C137.02618408 69.13402344 136.40783691 68.49851562 135.77075195 67.84375 C135.12452881 67.1734375 134.47830566 66.503125 133.8125 65.8125 C126.14425995 57.45215788 126.14425995 57.45215788 117 51 C114.8200735 51.02762114 114.8200735 51.02762114 113 52 C112.67 52.99 112.34 53.98 112 55 C113.05529546 56.70012196 113.05529546 56.70012196 114.75 58.375 C115.40097656 59.08527344 116.05195312 59.79554687 116.72265625 60.52734375 C117.47417969 61.34332031 118.22570312 62.15929687 119 63 C125.23814146 70.03865413 131.06115034 77.25956435 136.5 84.9375 C137.25639771 86.00182251 137.25639771 86.00182251 138.02807617 87.08764648 C143.1171317 94.38101077 145.449492 99.64413118 145.34057617 108.58544922 C145.34101425 109.53242172 145.34145233 110.47939423 145.34190369 111.45506287 C145.33982079 114.57181725 145.31651298 117.68802757 145.29296875 120.8046875 C145.28737103 122.97087307 145.28310176 125.13706244 145.28010559 127.30325317 C145.26867074 132.99477693 145.23921504 138.68606972 145.20599365 144.37750244 C145.16985728 151.21157051 145.15612516 158.04571596 145.13863373 164.87985229 C145.10957712 175.25339532 145.05208002 185.62643193 145 196 C126.19 196 107.38 196 88 196 C88 170.26 88 144.52 88 118 C77.77 118 67.54 118 57 118 C57 125.59 57 133.18 57 141 C56.34 141 55.68 141 55 141 C54.46375 140.319375 53.9275 139.63875 53.375 138.9375 C50.91823159 135.89886539 48.32290486 133.56194382 45.3515625 131.046875 C43.5971006 129.51973541 41.89057829 127.93719265 40.2109375 126.328125 C39.73084229 125.87074951 39.25074707 125.41337402 38.75610352 124.94213867 C37.36823853 123.6157688 35.99053189 122.27879435 34.61328125 120.94140625 C31.73029017 118.79963261 30.49819705 118.53987678 27 119 C26.24326573 120.8199397 26.24326573 120.8199397 26 123 C27.03184664 124.79256332 27.03184664 124.79256332 28.75 126.4375 C29.3996875 127.13746094 30.049375 127.83742188 30.71875 128.55859375 C31.4715625 129.36425781 32.224375 130.16992188 33 131 C41.14443207 140.16248607 48.23051815 149.78432135 55 160 C55.66 160.99 56.32 161.98 57 163 C57.17122248 165.54127298 57.23257451 167.97276745 57.1953125 170.51171875 C57.19329834 171.15741821 57.19128418 171.80311768 57.18920898 172.46838379 C57.17876398 174.87482837 57.1508413 177.2811715 57.125 179.6875 C57.08375 185.070625 57.0425 190.45375 57 196 C38.19 196 19.38 196 0 196 C0 131.32 0 66.64 0 0 Z " fill="#1C6835" transform="translate(693,3)"/>
<path d="M0 0 C11.56764326 8.87913902 16.23047919 21.33730877 18.58984375 35.2109375 C19.02164268 39.19993716 19.07553067 42.99243172 19 47 C14.17201892 48.76259627 9.4202124 49.76661317 4.375 50.625 C3.62476562 50.7590625 2.87453125 50.893125 2.1015625 51.03125 C-1.33566034 51.62849794 -4.50045616 52 -8 52 C-7.97905273 51.42145264 -7.95810547 50.84290527 -7.93652344 50.24682617 C-7.22537336 32.21699997 -7.22537336 32.21699997 -14.5625 16.125 C-22.21014756 8.09208052 -34.20764074 6.05142203 -44.79467773 5.71704102 C-54.73888349 5.57583119 -65.12724358 6.30815704 -73 13 C-77.0589359 17.17168411 -78.82089538 21.31840499 -79.10546875 27.16796875 C-78.81064451 33.51214956 -76.45403853 37.56414122 -72 42 C-62.30541783 50.25964402 -50.45434449 54.4910872 -38.6875 58.875 C-20.86682428 65.53208494 -4.86174676 73.75644434 9 87 C9.95712891 87.84498047 9.95712891 87.84498047 10.93359375 88.70703125 C20.4026804 97.37472527 26.30016487 110.17011892 27.12646484 122.95703125 C27.77114966 140.69612927 24.9406436 155.83784468 13.1875 169.875 C1.05170255 182.64213952 -16.8261319 190.321234 -34.36474609 191.16113281 C-38.36838461 191.20708409 -42.37109296 191.24666138 -46.375 191.25 C-47.09620026 191.25067474 -47.81740051 191.25134949 -48.56045532 191.25204468 C-68.94269864 191.22166452 -89.15761767 188.32212069 -105.02734375 174.1953125 C-115.65640287 162.984795 -118.34640019 149.86787412 -118.125 135 C-118.11597656 133.84371094 -118.10695313 132.68742188 -118.09765625 131.49609375 C-118.07424922 128.66384353 -118.04145995 125.83203381 -118 123 C-108.71402654 120.57244856 -99.5141468 118.36946052 -90 117 C-90.09087891 117.804375 -90.09087891 117.804375 -90.18359375 118.625 C-90.48183045 121.41466021 -90.74478356 124.20605165 -91 127 C-91.11859375 128.27875 -91.2371875 129.5575 -91.359375 130.875 C-92.30840488 142.19846765 -91.60353565 150.9749245 -86 161 C-85.566875 162.04027344 -85.566875 162.04027344 -85.125 163.1015625 C-83.72269971 165.46794424 -82.50660211 165.95323545 -80 167 C-78.88625 167.639375 -77.7725 168.27875 -76.625 168.9375 C-64.08112775 175.16280463 -48.36104039 175.82602506 -35 172 C-28.06880075 169.3374709 -24.14976614 165.72137595 -21 159 C-19.0151151 153.04534529 -18.98101176 146.35446099 -21.6875 140.625 C-23.68625656 137.19856018 -25.98422476 134.60453316 -29 132 C-29.50660156 131.55269531 -30.01320313 131.10539063 -30.53515625 130.64453125 C-39.97999916 122.90183586 -51.84941496 118.3660537 -63.125 114 C-82.47969677 106.42897351 -101.91638947 94.87893381 -110.83935547 75.14355469 C-117.16684225 59.75365242 -118.71723795 42.0196803 -113.3203125 26.07421875 C-107.33024242 12.12692539 -96.75563383 1.44502298 -83 -5 C-57.94864876 -14.94773762 -22.88828294 -15.65383929 0 0 Z " fill="#1C6835" transform="translate(118,11)"/>
<path d="M0 0 C16.83 0 33.66 0 51 0 C54.37459168 8.99891114 54.37459168 8.99891114 55.56445312 13.33569336 C55.83847961 14.32703781 56.1125061 15.31838226 56.39483643 16.33976746 C56.68735291 17.41229263 56.97986938 18.48481781 57.28125 19.58984375 C57.76425568 21.34214043 57.76425568 21.34214043 58.25701904 23.12983704 C58.96543688 25.70117193 59.67255109 28.27282585 60.37756348 30.84509277 C62.13893145 37.27046788 63.91250343 43.69248189 65.68430328 50.11498642 C66.3397084 52.49121537 66.99467377 54.86756524 67.64959717 57.243927 C73.21324046 77.42504664 78.82870714 97.59177593 84.44311523 117.75881958 C85.93379172 123.11346296 87.42341979 128.46839732 88.91273117 133.82342052 C90.05140618 137.91710588 91.19074546 142.01060614 92.33026886 146.1040554 C92.85822487 148.00097529 93.38596109 149.89795636 93.91344452 151.79500771 C94.65025536 154.44458849 95.38806281 157.09389026 96.12597656 159.74316406 C96.47579653 161.00281117 96.47579653 161.00281117 96.83268356 162.28790569 C98.09007623 166.80037909 99.37649351 171.30264228 100.69812012 175.79675293 C100.97687862 176.75082912 101.25563713 177.70490532 101.54284286 178.68789291 C102.07780839 180.51436392 102.6182099 182.33925466 103.16495132 184.16223526 C103.40537029 184.98507885 103.64578926 185.80792244 103.89349365 186.65570068 C104.21460428 187.73576197 104.21460428 187.73576197 104.542202 188.83764267 C105 191 105 191 105 196 C86.19 196 67.38 196 48 196 C46.00189708 190.67172555 44.2077768 185.53307788 42.73828125 180.0703125 C42.54276169 179.35390594 42.34724213 178.63749939 42.14579773 177.89938354 C41.73818818 176.4024957 41.33242688 174.9051034 40.9284668 173.40722656 C40.3080935 171.10867341 39.68083825 168.81207636 39.05273438 166.515625 C38.65584575 165.05479727 38.25934706 163.59386353 37.86328125 162.1328125 C37.6758284 161.44639679 37.48837555 160.75998108 37.29524231 160.05276489 C36 155.23113254 36 155.23113254 36 153 C16.86 153 -2.28 153 -22 153 C-22.66 156.3 -23.32 159.6 -24 163 C-24.67551761 165.57170462 -25.38363357 168.13513692 -26.12890625 170.6875 C-26.32346909 171.35668457 -26.51803192 172.02586914 -26.7184906 172.71533203 C-27.12406483 174.10718742 -27.53162725 175.49846498 -27.94116211 176.88916016 C-28.56909063 179.02239001 -29.19028107 181.15749961 -29.81054688 183.29296875 C-32.84946755 193.69893509 -32.84946755 193.69893509 -34 196 C-41.59 196 -49.18 196 -57 196 C-56.26203947 190.83427627 -55.32081862 186.19682616 -53.83300781 181.25390625 C-53.6125734 180.50717211 -53.392139 179.76043797 -53.16502476 178.99107552 C-52.43237695 176.51347842 -51.69275729 174.03802015 -50.953125 171.5625 C-50.42841235 169.79308779 -49.90414604 168.02354316 -49.3802948 166.25387573 C-47.96896019 161.4904548 -46.55167561 156.72882314 -45.13331223 151.96749115 C-43.65440008 146.99907954 -42.18103271 142.02902463 -40.70727539 137.05908203 C-38.60353473 129.96629843 -36.49812934 122.87401324 -34.39048481 115.78238869 C-30.88917612 104.00123897 -27.39922354 92.21677747 -23.91796875 80.4296875 C-23.44302802 78.82187779 -22.968083 77.21406934 -22.49313354 75.60626221 C-21.57872999 72.51063973 -20.66439836 69.41499601 -19.75012207 66.31933594 C-19.31258356 64.83788998 -18.87504291 63.35644466 -18.4375 61.875 C-18.22688431 61.1618866 -18.01626862 60.44877319 -17.79927063 59.71405029 C-11.91556172 39.79432828 -5.97932414 19.89125811 0 0 Z M8 50 C2.65617742 66.36064508 -2.04936637 82.89890645 -6.75610352 99.45074463 C-7.59209021 102.38766317 -8.43110473 105.3237132 -9.27014732 108.2597599 C-10.07929011 111.0920303 -10.88706165 113.9246902 -11.69435501 116.75748825 C-12.07920379 118.10763936 -12.46437177 119.45769952 -12.84986496 120.80766678 C-13.38220002 122.672993 -13.91258832 124.53887447 -14.44287109 126.40478516 C-14.74454193 127.46444489 -15.04621277 128.52410461 -15.35702515 129.61587524 C-16.04339783 131.74936655 -16.04339783 131.74936655 -16 133 C-0.82 133 14.36 133 30 133 C29.27265978 127.90861848 28.37058882 123.1621568 27.05053711 118.22875977 C26.85531967 117.48646622 26.66010223 116.74417267 26.45896912 115.97938538 C25.81882659 113.54905637 25.17313303 111.12024029 24.52734375 108.69140625 C24.08002341 106.9975631 23.63305291 105.30362753 23.18641663 103.60960388 C22.01446337 99.16835312 20.83778373 94.72836811 19.66009521 90.28863525 C18.45737314 85.75112519 17.25915314 81.21242679 16.06054688 76.67382812 C13.71142093 67.7813873 11.3572971 58.89027795 9 50 C8.67 50 8.34 50 8 50 Z " fill="#1C6835" transform="translate(383,3)"/>
<path d="M0 0 C16.83 0 33.66 0 51 0 C55.10266809 14.06629061 59.19638278 28.12431767 63.125 42.23828125 C63.59054922 43.90671765 64.05621057 45.57512277 64.52197266 47.24349976 C65.76048746 51.6815502 66.99713426 56.12011877 68.2331543 60.55886459 C69.00736169 63.33893481 69.78194633 66.11889966 70.55664062 68.89883423 C73.53920843 79.60198389 76.51917909 90.3058543 79.49766541 101.01014042 C81.45092449 108.02911331 83.40657164 115.04741801 85.36328125 122.06542969 C87.80616683 130.8274315 90.24612964 139.5902409 92.68241882 148.35407925 C93.96647294 152.97294118 95.251731 157.59145956 96.54003906 162.20913696 C97.74524699 166.52933561 98.94677548 170.85054031 100.14541626 175.17256546 C100.58593723 176.75854122 101.02778569 178.34414892 101.47103882 179.92936325 C102.07411117 182.08694491 102.67242971 184.24578893 103.26953125 186.4050293 C103.60573486 187.61345993 103.94193848 188.82189056 104.28833008 190.06694031 C105 193 105 193 105 196 C85.86 196 66.72 196 47 196 C45.185 189.6475 43.37 183.295 41.5 176.75 C40.63858398 173.7505127 40.63858398 173.7505127 39.75976562 170.69042969 C39.30817768 169.10102961 38.85697934 167.51151877 38.40625 165.921875 C38.16874023 165.10025879 37.93123047 164.27864258 37.68652344 163.43212891 C37.46319336 162.64080566 37.23986328 161.84948242 37.00976562 161.03417969 C36.81435181 160.35023132 36.61893799 159.66628296 36.41760254 158.96160889 C36 157 36 157 36 153 C16.86 153 -2.28 153 -22 153 C-23.32 158.28 -24.64 163.56 -26 169 C-27.3886038 173.84490962 -28.79464235 178.67575889 -30.25 183.5 C-30.61351562 184.71558594 -30.97703125 185.93117187 -31.3515625 187.18359375 C-32.23117607 190.12335489 -33.11511034 193.06182269 -34 196 C-41.92 196 -49.84 196 -58 196 C-55.69229196 186.41522201 -52.98398786 176.985491 -50.15234375 167.546875 C-49.66670892 165.92054968 -49.18134489 164.29414347 -48.69622803 162.66766357 C-47.65628751 159.18255394 -46.61482768 155.69790368 -45.57211304 152.21362305 C-43.05751502 143.8105789 -40.55030593 135.40532961 -38.04335976 127 C-37.45981301 125.04351066 -36.87617242 123.08704931 -36.29244041 121.13061523 C-31.73677463 105.86031175 -27.21038396 90.58153281 -22.703125 75.296875 C-22.40675707 74.29210869 -22.11038914 73.28734238 -21.80504036 72.2521286 C-18.91804616 62.46425392 -16.03308277 52.67578603 -13.15302467 42.88586807 C-12.08714645 39.26427422 -11.01958301 35.64317856 -9.95163727 32.02219391 C-9.45927213 30.35127973 -8.96766959 28.68014061 -8.47692108 27.00875092 C-7.8012648 24.70772748 -7.12295461 22.40750101 -6.4440918 20.10742188 C-6.25457412 19.4594804 -6.06505644 18.81153893 -5.8697958 18.14396286 C-4.06173312 12.03613809 -2.01877915 6.05633744 0 0 Z M7 51 C6.81509506 51.63574951 6.63019012 52.27149902 6.43968201 52.92651367 C4.47609064 59.67776578 2.51237096 66.42898056 0.54858398 73.18017578 C-0.17963756 75.68374737 -0.90782876 78.18732778 -1.63598633 80.69091797 C-2.34344277 83.12331824 -3.0509928 85.5556913 -3.75863647 87.98803711 C-4.46358464 90.41188242 -5.16803243 92.83587331 -5.87197876 95.26000977 C-7.597429 101.19829775 -9.33247464 107.1334283 -11.08935547 113.0625 C-11.41636948 114.17028809 -11.74338348 115.27807617 -12.08030701 116.41943359 C-12.69695608 118.50669109 -13.31679908 120.59300851 -13.94032288 122.67822266 C-14.21259201 123.6016748 -14.48486115 124.52512695 -14.76538086 125.4765625 C-15.00494003 126.28174316 -15.24449921 127.08692383 -15.49131775 127.91650391 C-16.11859085 130.1282836 -16.11859085 130.1282836 -16 133 C-0.82 133 14.36 133 30 133 C28.80178698 127.00893492 27.61487574 121.23745354 26.06054688 115.36303711 C25.87814957 114.67067963 25.69575226 113.97832214 25.50782776 113.26498413 C24.91481538 111.01820221 24.31717806 108.77268883 23.71875 106.52734375 C23.30037698 104.95220432 22.88204268 103.37705461 22.46374512 101.80189514 C21.59193163 98.52265871 20.71738901 95.24416333 19.84130859 91.96606445 C18.71727915 87.75799652 17.60370965 83.54723366 16.49251556 79.33576107 C15.63493791 76.09250787 14.77016253 72.8512066 13.90333557 69.61041451 C13.48922126 68.05731949 13.07778429 66.50350808 12.66905212 64.94898796 C12.10009224 62.78802141 11.52110332 60.62999184 10.93945312 58.47241211 C10.6123938 57.2434874 10.28533447 56.01456268 9.94836426 54.74839783 C9.31184947 51.86441183 9.31184947 51.86441183 7 51 Z " fill="#1C6835" transform="translate(209,3)"/>
<path d="M0 0 C19.14 0 38.28 0 58 0 C58 41.91 58 83.82 58 127 C38.86 127 19.72 127 0 127 C0 96.14568345 0 96.14568345 7 88 C8.13787916 86.44237871 9.27565456 84.88467898 10.41064453 83.32495117 C16.96304327 74.48961979 24.22112708 65.77887292 32 58 C32.16681109 54.91652174 32.16681109 54.91652174 32 52 C27.68897446 52.10514696 25.55012427 53.11918265 22.625 56.125 C22.0371875 56.75921875 21.449375 57.3934375 20.84375 58.046875 C19.02932824 59.96893195 17.13866511 61.66498281 15.125 63.375 C11.14262136 66.78957856 7.51071259 70.49143408 3.8828125 74.27734375 C2 76 2 76 0 76 C0 50.92 0 25.84 0 0 Z " fill="#1C6835" transform="translate(872,72)"/>
<path d="M0 0 C3.94677971 -0.10007438 7.89305205 -0.17202516 11.84082031 -0.21972656 C13.83164478 -0.24935477 15.82211708 -0.30022326 17.8125 -0.3515625 C29.22561439 -0.46684648 38.59612897 1.79624994 47 9.9375 C54.63468885 18.02128819 58.15253027 26.03635502 58.09765625 37.17578125 C58.09443359 38.33271484 58.09121094 39.48964844 58.08789062 40.68164062 C58.07532227 42.47891602 58.07532227 42.47891602 58.0625 44.3125 C58.05798828 45.53001953 58.05347656 46.74753906 58.04882812 48.00195312 C58.03706578 51.00135226 58.02062826 54.00065089 58 57 C53.56272822 57.11756758 49.12586472 57.18770716 44.6875 57.25 C42.82254883 57.30027344 42.82254883 57.30027344 40.91992188 57.3515625 C29.67254478 57.4696452 20.73842851 55.29699829 12.00390625 47.984375 C3.16704577 39.23364376 -0.01361994 28.70473333 -0.09765625 16.50390625 C-0.09107654 14.52341376 -0.07925057 12.54293258 -0.0625 10.5625 C-0.05798828 9.54478516 -0.05347656 8.52707031 -0.04882812 7.47851562 C-0.03712437 4.98561491 -0.02072848 2.49283926 0 0 Z " fill="#1C6835" transform="translate(872,2)"/>
</svg>
